<?xml version="1.0" encoding="UTF-8"?>
<svg viewBox="0 0 1200 800" xmlns="http://www.w3.org/2000/svg">
  <!-- Background -->
  <rect x="0" y="0" width="1200" height="800" fill="#121622"/>
  
  <!-- Definitions -->
  <defs>
    <filter id="dropShadow" x="0" y="0" width="200%" height="200%">
      <feOffset result="offOut" in="SourceAlpha" dx="0" dy="2" />
      <feGaussianBlur result="blurOut" in="offOut" stdDeviation="2" />
      <feBlend in="SourceGraphic" in2="blurOut" mode="normal" />
    </filter>
    <linearGradient id="soneiumGradient" x1="0%" y1="0%" x2="100%" y2="0%">
      <stop offset="0%" style="stop-color:#3949ab;stop-opacity:1" />
      <stop offset="100%" style="stop-color:#00bcd4;stop-opacity:1" />
    </linearGradient>
    <linearGradient id="cardGradient" x1="0%" y1="0%" x2="0%" y2="100%">
      <stop offset="0%" style="stop-color:#1a2133;stop-opacity:1" />
      <stop offset="100%" style="stop-color:#131825;stop-opacity:1" />
    </linearGradient>
  </defs>
  
  <!-- Top Navigation Bar -->
  <rect x="0" y="0" width="1200" height="60" fill="#0c1018" filter="url(#dropShadow)"/>
  
  <!-- Logo Area -->
  <circle cx="40" cy="30" r="22" fill="url(#soneiumGradient)"/>
  <text x="75" y="38" font-family="Arial" font-size="22" font-weight="bold" fill="white">SECURECHAIN</text>
  <text x="260" y="38" font-family="Arial" font-size="14" fill="#8e9cb3">AI-Driven Event Camera System</text>
  
  <!-- Prominent Soneium Branding in Header -->
  <rect x="820" y="15" width="360" height="30" rx="15" fill="#0a0e15" stroke="url(#soneiumGradient)" stroke-width="2"/>
  <text x="910" y="35" font-family="Arial" font-size="14" fill="#4fc3f7" font-weight="bold" text-anchor="middle">POWERED BY</text>
  <text x="1030" y="35" font-family="Arial" font-size="16" font-weight="bold" fill="url(#soneiumGradient)" text-anchor="middle">SONEIUM</text>
  
  <!-- User Profile -->
  <circle cx="750" cy="30" r="18" fill="#1e293b" stroke="#4fc3f7" stroke-width="1"/>
  <text x="750" y="36" font-family="Arial" font-size="16" fill="white" text-anchor="middle">JD</text>
  <circle cx="785" cy="25" r="8" fill="#ff5722"/>
  <text x="785" y="29" font-family="Arial" font-size="10" fill="white" text-anchor="middle">4</text>
  
  <!-- Left Sidebar -->
  <rect x="0" y="60" width="200" height="740" fill="#0c1018"/>
  
  <!-- User Profile in Sidebar -->
  <circle cx="40" cy="100" r="20" fill="#1e293b" stroke="#4fc3f7" stroke-width="1"/>
  <text x="40" y="105" font-family="Arial" font-size="14" fill="white" text-anchor="middle">RN</text>
  <text x="75" y="95" font-family="Arial" font-size="14" font-weight="bold" fill="white">Rahul Nandan</text>
  <text x="75" y="115" font-family="Arial" font-size="12" fill="#8e9cb3">Administrator</text>
  <line x1="20" y1="130" x2="180" y2="130" stroke="#2c3440" stroke-width="1"/>
  
  <!-- Navigation Menu - Cleaner -->
  <rect x="10" y="150" width="180" height="40" rx="5" fill="#1e293b"/>
  <text x="50" y="175" font-family="Arial" font-size="14" fill="white">📊 Dashboard</text>
  
  <rect x="10" y="200" width="180" height="40" rx="5" fill="transparent"/>
  <text x="50" y="225" font-family="Arial" font-size="14" fill="#8e9cb3">📹 Live Cameras</text>
  
  <rect x="10" y="250" width="180" height="40" rx="5" fill="transparent"/>
  <text x="50" y="275" font-family="Arial" font-size="14" fill="#8e9cb3">🔍 Anomaly Events</text>
  
  <rect x="10" y="300" width="180" height="40" rx="5" fill="transparent"/>
  <text x="50" y="325" font-family="Arial" font-size="14" fill="#8e9cb3">🔗 Blockchain Logs</text>
  
  <rect x="10" y="350" width="180" height="40" rx="5" fill="transparent"/>
  <text x="50" y="375" font-family="Arial" font-size="14" fill="#8e9cb3">📈 Analytics</text>
  
  <rect x="10" y="400" width="180" height="40" rx="5" fill="transparent"/>
  <text x="50" y="425" font-family="Arial" font-size="14" fill="#8e9cb3">🔔 Notifications</text>
  
  <rect x="10" y="450" width="180" height="40" rx="5" fill="transparent"/>
  <text x="50" y="475" font-family="Arial" font-size="14" fill="#8e9cb3">⚙️ System Settings</text>
  
  <!-- Soneium Agent Badge - Well-designed -->
  <rect x="20" y="670" width="160" height="80" rx="10" fill="#0a0e15" stroke="url(#soneiumGradient)" stroke-width="2"/>
  <text x="100" y="695" font-family="Arial" font-size="12" fill="#4fc3f7" text-anchor="middle">SONEIUM AGENT</text>
  <line x1="50" y1="705" x2="150" y2="705" stroke="#2c3440" stroke-width="1"/>
  <text x="100" y="725" font-family="Arial" font-size="14" fill="#4fc3f7" font-weight="bold" text-anchor="middle">v1.2.3</text>
  <circle cx="100" cy="740" r="6" fill="#4caf50"/>
  <text x="115" y="745" font-family="Arial" font-size="12" fill="#4caf50">CONNECTED</text>
  
  <!-- Main Content Area -->
  <rect x="220" y="80" width="960" height="700" fill="#0e121d" rx="10"/>
  
  <!-- Dashboard Header - Clean -->
  <text x="250" y="115" font-family="Arial" font-size="22" font-weight="bold" fill="white">System Dashboard</text>
  <text x="880" y="115" font-family="Arial" font-size="14" fill="#8e9cb3">Last Sync: 07/08/2025 • 14:43:12</text>
  <line x1="250" y1="130" x2="1150" y2="130" stroke="#2c3440" stroke-width="1"/>
  
  <!-- Status Cards - Clean Grid Layout -->
  <rect x="250" y="150" width="280" height="120" rx="10" fill="url(#cardGradient)" stroke="#2c3440" stroke-width="1"/>
  <text x="270" y="180" font-family="Arial" font-size="14" fill="#8e9cb3">SYSTEM STATUS</text>
  <rect x="270" y="190" width="40" height="2" fill="#4caf50"/>
  <text x="270" y="225" font-family="Arial" font-size="26" font-weight="bold" fill="#4caf50">OPERATIONAL</text>
  <text x="270" y="250" font-family="Arial" font-size="12" fill="#8e9cb3">All systems running optimally</text>
  
  <rect x="550" y="150" width="280" height="120" rx="10" fill="url(#cardGradient)" stroke="#2c3440" stroke-width="1"/>
  <text x="570" y="180" font-family="Arial" font-size="14" fill="#8e9cb3">CAMERAS ONLINE</text>
  <rect x="570" y="190" width="40" height="2" fill="#4fc3f7"/>
  <text x="570" y="225" font-family="Arial" font-size="26" font-weight="bold" fill="#4fc3f7">8/9</text>
  <rect x="635" y="220" width="180" height="8" rx="4" fill="#1a1f2c"/>
  <rect x="635" y="220" width="160" height="8" rx="4" fill="#4fc3f7"/>
  <text x="570" y="250" font-family="Arial" font-size="12" fill="#ff5722">1 camera offline - Parking Lot East</text>
  
  <rect x="850" y="150" width="280" height="120" rx="10" fill="url(#cardGradient)" stroke="#2c3440" stroke-width="1"/>
  <text x="870" y="180" font-family="Arial" font-size="14" fill="#8e9cb3">ANOMALIES TODAY</text>
  <rect x="870" y="190" width="40" height="2" fill="#ff5722"/>
  <text x="870" y="225" font-family="Arial" font-size="26" font-weight="bold" fill="#ff5722">12</text>
  <text x="920" y="225" font-family="Arial" font-size="14" fill="#4caf50">▲ 3</text>
  <text x="870" y="250" font-family="Arial" font-size="12" fill="#8e9cb3">All verified on blockchain</text>
  
  <!-- Activity Graph - Cleaner Design -->
  <rect x="250" y="290" width="550" height="220" rx="10" fill="url(#cardGradient)" stroke="#2c3440" stroke-width="1"/>
  <text x="270" y="320" font-family="Arial" font-size="16" fill="white">Activity Overview</text>
  <line x1="270" y1="330" x2="780" y2="330" stroke="#2c3440" stroke-width="1"/>
  
  <!-- Graph Elements -->
  <line x1="270" y1="460" x2="780" y2="460" stroke="#2c3440" stroke-width="1"/>
  <text x="270" y="480" font-family="Arial" font-size="10" fill="#8e9cb3">00:00</text>
  <text x="358" y="480" font-family="Arial" font-size="10" fill="#8e9cb3">04:00</text>
  <text x="446" y="480" font-family="Arial" font-size="10" fill="#8e9cb3">08:00</text>
  <text x="534" y="480" font-family="Arial" font-size="10" fill="#8e9cb3">12:00</text>
  <text x="622" y="480" font-family="Arial" font-size="10" fill="#8e9cb3">16:00</text>
  <text x="710" y="480" font-family="Arial" font-size="10" fill="#8e9cb3">20:00</text>
  <text x="780" y="480" font-family="Arial" font-size="10" fill="#8e9cb3">00:00</text>
  
  <!-- Graph Lines -->
  <polyline points="270,420 292,425 314,420 336,400 358,410 380,390 402,395 424,400 446,370 468,395 490,375 512,365 534,345 556,325 578,335 600,310 622,350 644,360 666,350 688,370 710,360 732,340 754,350 776,365" 
           fill="none" stroke="#4fc3f7" stroke-width="2"/>
  
  <polyline points="270,440 292,435 314,438 336,430 358,432 380,430 402,425 424,430 446,410 468,435 490,430 512,425 534,410 556,390 578,400 600,370 622,410 644,415 666,405 688,425 710,420 732,400 754,410 776,420" 
           fill="none" stroke="#ff5722" stroke-width="2"/>
  
  <!-- Graph Legend - Clean -->
  <circle cx="300" cy="350" r="5" fill="#4fc3f7"/>
  <text x="312" y="354" font-family="Arial" font-size="12" fill="#8e9cb3">Motion Events</text>
  
  <circle cx="420" cy="350" r="5" fill="#ff5722"/>
  <text x="432" y="354" font-family="Arial" font-size="12" fill="#8e9cb3">Anomalies</text>
  
  <!-- Blockchain Verification Status - Clean -->
  <rect x="820" y="290" width="310" height="220" rx="10" fill="url(#cardGradient)" stroke="#2c3440" stroke-width="1"/>
  <text x="840" y="320" font-family="Arial" font-size="16" fill="white">Blockchain Verification</text>
  <line x1="840" y1="330" x2="1110" y2="330" stroke="#2c3440" stroke-width="1"/>
  
  <!-- Clean circular progress indicator -->
  <circle cx="920" cy="400" r="60" fill="none" stroke="#263238" stroke-width="12"/>
  <circle cx="920" cy="400" r="60" fill="none" stroke="#4caf50" stroke-width="12" stroke-dasharray="377" stroke-dashoffset="0"/>
  <text x="920" y="410" font-family="Arial" font-size="26" font-weight="bold" fill="white" text-anchor="middle">100%</text>
  <text x="920" y="435" font-family="Arial" font-size="12" fill="#8e9cb3" text-anchor="middle">All events verified</text>
  
  <!-- Soneium Agent Stats Box -->
  <rect x="1020" y="350" width="90" height="100" rx="5" fill="#131825" stroke="#2c3440" stroke-width="1"/>
  <text x="1065" y="370" font-family="Arial" font-size="12" fill="#4fc3f7" font-weight="bold" text-anchor="middle">SONEIUM</text>
  <text x="1065" y="385" font-family="Arial" font-size="10" fill="#4fc3f7" text-anchor="middle">AGENT STATS</text>
  <line x1="1030" y1="395" x2="1100" y2="395" stroke="#2c3440" stroke-width="1"/>
  
  <text x="1037" y="415" font-family="Arial" font-size="10" fill="#8e9cb3">Processing:</text>
  <text x="1093" y="415" font-family="Arial" font-size="10" fill="#4caf50" font-weight="bold" text-anchor="end">120ms</text>
  
  <text x="1037" y="435" font-family="Arial" font-size="10" fill="#8e9cb3">Success Rate:</text>
  <text x="1093" y="435" font-family="Arial" font-size="10" fill="#4caf50" font-weight="bold" text-anchor="end">99.8%</text>
  
  <!-- Latest Block Info -->
  <rect x="840" y="470" width="290" height="40" rx="5" fill="#131825" stroke="#2c3440" stroke-width="1"/>
  <text x="855" y="490" font-family="Arial" font-size="12" fill="#8e9cb3">LATEST BLOCK:</text>
  <text x="940" y="490" font-family="Arial" font-size="12" font-weight="bold" fill="#4fc3f7">#428501</text>
  <text x="990" y="490" font-family="Arial" font-size="12" fill="#8e9cb3">HASH:</text>
  <text x="1030" y="490" font-family="Arial" font-size="12" fill="#8e9cb3">0x8f4e...7a1</text>
  
  <!-- Recent Events Section - Clean -->
  <text x="250" y="530" font-family="Arial" font-size="18" font-weight="bold" fill="white">Recent Events</text>
  <rect x="1070" y="520" width="90" height="30" rx="15" fill="#4fc3f7"/>
  <text x="1115" y="540" font-family="Arial" font-size="12" fill="white" text-anchor="middle">View All</text>
  <line x1="250" y1="550" x2="1150" y2="550" stroke="#2c3440" stroke-width="1"/>
  
  <!-- Event Cards - Cleaner Layout -->
  <rect x="250" y="570" width="210" height="200" rx="10" fill="url(#cardGradient)" stroke="#2c3440" stroke-width="1"/>
  <rect x="250" y="570" width="210" height="40" rx="10 10 0 0" fill="#ff5722"/>
  <text x="270" y="595" font-family="Arial" font-size="14" font-weight="bold" fill="white">Unauthorized Access</text>
  <rect x="260" y="620" width="190" height="100" fill="#131825" rx="5"/>
  <rect x="340" y="645" width="30" height="50" fill="rgba(255, 87, 34, 0.4)" rx="2"/>
  <text x="270" y="740" font-family="Arial" font-size="12" fill="white">Parking Lot • Camera 3</text>
  <text x="270" y="760" font-family="Arial" font-size="10" fill="#8e9cb3">2025-07-08 14:32:42</text>
  <rect x="350" y="752" width="100" height="16" rx="8" fill="#131825"/>
  <text x="370" y="764" font-family="Arial" font-size="10" fill="#4fc3f7">BLOCK #428501</text>
  
  <rect x="480" y="570" width="210" height="200" rx="10" fill="url(#cardGradient)" stroke="#2c3440" stroke-width="1"/>
  <rect x="480" y="570" width="210" height="40" rx="10 10 0 0" fill="#ffc107"/>
  <text x="500" y="595" font-family="Arial" font-size="14" font-weight="bold" fill="white">Object Left Behind</text>
  <rect x="490" y="620" width="190" height="100" fill="#131825" rx="5"/>
  <rect x="570" y="670" width="30" height="20" fill="rgba(255, 193, 7, 0.4)" rx="2"/>
  <text x="500" y="740" font-family="Arial" font-size="12" fill="white">Main Lobby • Camera 6</text>
  <text x="500" y="760" font-family="Arial" font-size="10" fill="#8e9cb3">2025-07-08 14:15:30</text>
  <rect x="580" y="752" width="100" height="16" rx="8" fill="#131825"/>
  <text x="600" y="764" font-family="Arial" font-size="10" fill="#4fc3f7">BLOCK #428499</text>
  
  <rect x="710" y="570" width="210" height="200" rx="10" fill="url(#cardGradient)" stroke="#2c3440" stroke-width="1"/>
  <rect x="710" y="570" width="210" height="40" rx="10 10 0 0" fill="#4caf50"/>
  <text x="730" y="595" font-family="Arial" font-size="14" font-weight="bold" fill="white">Motion Detected</text>
  <rect x="720" y="620" width="190" height="100" fill="#131825" rx="5"/>
  <text x="730" y="740" font-family="Arial" font-size="12" fill="white">Front Entrance • Camera 1</text>
  <text x="730" y="760" font-family="Arial" font-size="10" fill="#8e9cb3">2025-07-08 13:58:22</text>
  <rect x="810" y="752" width="100" height="16" rx="8" fill="#131825"/>
  <text x="830" y="764" font-family="Arial" font-size="10" fill="#4fc3f7">BLOCK #428495</text>
  
  <rect x="940" y="570" width="210" height="200" rx="10" fill="url(#cardGradient)" stroke="#2c3440" stroke-width="1"/>
  <rect x="940" y="570" width="210" height="40" rx="10 10 0 0" fill="#ff5722"/>
  <text x="960" y="595" font-family="Arial" font-size="14" font-weight="bold" fill="white">Anomaly Detected</text>
  <rect x="950" y="620" width="190" height="100" fill="#131825" rx="5"/>
  <rect x="1030" y="650" width="30" height="40" fill="rgba(255, 87, 34, 0.4)" rx="2"/>
  <text x="960" y="740" font-family="Arial" font-size="12" fill="white">Loading Dock • Camera 7</text>
  <text x="960" y="760" font-family="Arial" font-size="10" fill="#8e9cb3">2025-07-08 13:45:19</text>
  <rect x="1040" y="752" width="100" height="16" rx="8" fill="#131825"/>
  <text x="1060" y="764" font-family="Arial" font-size="10" fill="#4fc3f7">BLOCK #428493</text>
  
  <!-- Soneium Integration Footer - Prominent -->
  <rect x="220" y="780" width="960" height="40" fill="#0c1018" rx="0 0 10 10"/>
  <text x="250" y="805" font-family="Arial" font-size="12" fill="#8e9cb3">© 2025 SecureChain Technology</text>
  
  <!-- Prominent Soneium Footer -->
  <rect x="600" y="790" width="560" height="20" rx="10" fill="#0a0e15" stroke="url(#soneiumGradient)" stroke-width="2"/>
  <text x="770" y="805" font-family="Arial" font-size="14" fill="#4fc3f7" font-weight="bold">POWERED BY</text>
  <text x="890" y="805" font-family="Arial" font-size="14" font-weight="bold" fill="url(#soneiumGradient)">SONEIUM AGENT TECHNOLOGY</text>
</svg>